ffmpeg started on 2025-05-28 at 10:23:37
Report written to "D:\Convert\FFMetrics\reports\psnr_report-6.txt"
Log level: 32
Command line:
ffmpeg -hide_banner -nostdin -i "G:\\\xc0\xed\xe8\xec\xe5\\\xce\xed\xe3\xee\xe8\xed\xe3\xe8\\!_36_\xce\xf1\xe5\xed\xfc_2024\\JamClub\\MF \xcf\xf0\xe8\xe7\xf0\xe0\xea\\\xd2\xc2-1\\[JAMCLUB] MF Ghost - 05 (1080p)_HEVC.mkv" -i "G:\\\xc0\xed\xe8\xec\xe5\\\xce\xed\xe3\xee\xe8\xed\xe3\xe8\\!_36_\xce\xf1\xe5\xed\xfc_2024\\JamClub\\MF \xcf\xf0\xe8\xe7\xf0\xe0\xea\\\xd2\xc2-1\\[JAMCLUB] MF Ghost - 05 (1080p).mp4" -lavfi "[0:v]settb=AVTB,setpts=PTS-STARTPTS,format=pix_fmts=yuv420p10,fps=24000/1001,scale=1920:1080:flags=bicubic[main];[1:v]settb=AVTB,setpts=PTS-STARTPTS,format=pix_fmts=yuv420p,fps=24000/1001,scale=1920:1080:flags=bicubic[ref];[main][ref]psnr=eof_action=endall:stats_file='D\\:/Convert/FFMetrics/logs/psnr_logfile-6.txt'" -f null -
Input #0, matroska,webm, from 'G:\Аниме\Онгоинги\!_36_Осень_2024\JamClub\MF Призрак\ТВ-1\[JAMCLUB] MF Ghost - 05 (1080p)_HEVC.mkv':
  Metadata:
    COMPATIBLE_BRANDS: isomiso2avc1mp41
    MAJOR_BRAND     : isom
    MINOR_VERSION   : 512
    ENCODER         : Lavf61.7.100
  Duration: 00:24:02.33, start: -0.021000, bitrate: 2288 kb/s
  Stream #0:0: Video: hevc (Main 10), yuv420p10le(tv, bt709, progressive), 1920x1080 [SAR 1:1 DAR 16:9], 23.98 fps, 23.98 tbr, 1k tbn (default)
      Metadata:
        HANDLER_NAME    : VideoHandler
        VENDOR_ID       : [0][0][0][0]
        ENCODER         : Lavc61.19.100 libx265
        BPS             : 2086890
        DURATION        : 00:24:02.190708333
        NUMBER_OF_FRAMES: 34578
        NUMBER_OF_BYTES : 376211596
        _STATISTICS_WRITING_APP: mkvpropedit v66.0.0 ('Josie') 64-bit
        _STATISTICS_WRITING_DATE_UTC: 2025-05-27 08:32:35
        _STATISTICS_TAGS: BPS DURATION NUMBER_OF_FRAMES NUMBER_OF_BYTES
  Stream #0:1: Audio: aac (LC), 48000 Hz, stereo, fltp (default)
      Metadata:
        HANDLER_NAME    : SoundHandler
        VENDOR_ID       : [0][0][0][0]
        ENCODER         : Lavc61.19.100 aac
        BPS             : 197561
        DURATION        : 00:24:02.304000000
        NUMBER_OF_FRAMES: 67609
        NUMBER_OF_BYTES : 35618035
        _STATISTICS_WRITING_APP: mkvpropedit v66.0.0 ('Josie') 64-bit
        _STATISTICS_WRITING_DATE_UTC: 2025-05-27 08:32:35
        _STATISTICS_TAGS: BPS DURATION NUMBER_OF_FRAMES NUMBER_OF_BYTES
Input #1, mov,mp4,m4a,3gp,3g2,mj2, from 'G:\Аниме\Онгоинги\!_36_Осень_2024\JamClub\MF Призрак\ТВ-1\[JAMCLUB] MF Ghost - 05 (1080p).mp4':
  Metadata:
    major_brand     : isom
    minor_version   : 512
    compatible_brands: isomiso2avc1mp41
    encoder         : Lavf60.10.100
  Duration: 00:24:02.30, start: 0.000000, bitrate: 5259 kb/s
  Stream #1:0[0x1](und): Video: h264 (High) (avc1 / 0x31637661), yuv420p(tv, bt709, progressive), 1920x1080 [SAR 1:1 DAR 16:9], 4998 kb/s, 23.98 fps, 23.98 tbr, 24k tbn (default)
      Metadata:
        handler_name    : VideoHandler
        vendor_id       : [0][0][0][0]
        encoder         : Lavc60.23.100 h264_nvenc
  Stream #1:1[0x2](und): Audio: aac (LC) (mp4a / 0x6134706D), 48000 Hz, stereo, fltp, 256 kb/s (default)
      Metadata:
        handler_name    : SoundHandler
        vendor_id       : [0][0][0][0]
Stream mapping:
  Stream #0:0 (hevc) -> settb:default
  Stream #1:0 (h264) -> settb:default
  psnr:default -> Stream #0:0 (wrapped_avframe)
  Stream #0:1 -> #0:1 (aac (native) -> pcm_s16le (native))
Output #0, null, to 'pipe:':
  Metadata:
    COMPATIBLE_BRANDS: isomiso2avc1mp41
    MAJOR_BRAND     : isom
    MINOR_VERSION   : 512
    encoder         : Lavf61.7.100
  Stream #0:0: Video: wrapped_avframe, yuv420p10le(tv, bt709, progressive), 1920x1080 [SAR 1:1 DAR 16:9], q=2-31, 200 kb/s, 23.98 fps, 23.98 tbn
      Metadata:
        encoder         : Lavc61.19.100 wrapped_avframe
  Stream #0:1: Audio: pcm_s16le, 48000 Hz, stereo, s16, 1536 kb/s (default)
      Metadata:
        HANDLER_NAME    : SoundHandler
        VENDOR_ID       : [0][0][0][0]
        _STATISTICS_TAGS: BPS DURATION NUMBER_OF_FRAMES NUMBER_OF_BYTES
        BPS             : 197561
        DURATION        : 00:24:02.304000000
        NUMBER_OF_FRAMES: 67609
        NUMBER_OF_BYTES : 35618035
        _STATISTICS_WRITING_APP: mkvpropedit v66.0.0 ('Josie') 64-bit
        _STATISTICS_WRITING_DATE_UTC: 2025-05-27 08:32:35
        encoder         : Lavc61.19.100 pcm_s16le
frame=  108 fps=0.0 q=-0.0 size=N/A time=00:00:04.50 bitrate=N/A speed=8.68x    frame=  268 fps=261 q=-0.0 size=N/A time=00:00:11.17 bitrate=N/A speed=10.9x    frame=  484 fps=312 q=-0.0 size=N/A time=00:00:20.18 bitrate=N/A speed=  13x    frame=  703 fps=342 q=-0.0 size=N/A time=00:00:29.32 bitrate=N/A speed=14.3x    frame=  932 fps=361 q=-0.0 size=N/A time=00:00:38.87 bitrate=N/A speed=15.1x    frame= 1132 fps=366 q=-0.0 size=N/A time=00:00:47.21 bitrate=N/A speed=15.3x    frame= 1339 fps=372 q=-0.0 size=N/A time=00:00:55.84 bitrate=N/A speed=15.5x    frame= 1590 fps=385 q=-0.0 size=N/A time=00:01:06.31 bitrate=N/A speed=16.1x    frame= 1724 fps=371 q=-0.0 size=N/A time=00:01:11.90 bitrate=N/A speed=15.5x    frame= 1872 fps=363 q=-0.0 size=N/A time=00:01:18.07 bitrate=N/A speed=15.2x    frame= 2068 fps=364 q=-0.0 size=N/A time=00:01:26.25 bitrate=N/A speed=15.2x    frame= 2247 fps=363 q=-0.0 size=N/A time=00:01:33.71 bitrate=N/A speed=15.2x    frame= 2406 fps=359 q=-0.0 size=N/A time=00:01:40.35 bitrate=N/A speed=  15x    frame= 2538 fps=351 q=-0.0 size=N/A time=00:01:45.85 bitrate=N/A speed=14.7x    frame= 2716 fps=351 q=-0.0 size=N/A time=00:01:53.27 bitrate=N/A speed=14.7x    frame= 2892 fps=350 q=-0.0 size=N/A time=00:02:00.62 bitrate=N/A speed=14.6x    frame= 3039 fps=346 q=-0.0 size=N/A time=00:02:06.75 bitrate=N/A speed=14.5x    frame= 3187 fps=344 q=-0.0 size=N/A time=00:02:12.92 bitrate=N/A speed=14.3x    frame= 3326 fps=339 q=-0.0 size=N/A time=00:02:18.72 bitrate=N/A speed=14.2x    frame= 3485 fps=338 q=-0.0 size=N/A time=00:02:25.35 bitrate=N/A speed=14.1x    frame= 3639 fps=336 q=-0.0 size=N/A time=00:02:31.77 bitrate=N/A speed=  14x    frame= 3806 fps=335 q=-0.0 size=N/A time=00:02:38.74 bitrate=N/A speed=  14x    frame= 3990 fps=336 q=-0.0 size=N/A time=00:02:46.41 bitrate=N/A speed=  14x    frame= 4157 fps=336 q=-0.0 size=N/A time=00:02:53.38 bitrate=N/A speed=  14x    frame= 4319 fps=335 q=-0.0 size=N/A time=00:03:00.13 bitrate=N/A speed=  14x    frame= 4511 fps=336 q=-0.0 size=N/A time=00:03:08.14 bitrate=N/A speed=  14x    frame= 4715 fps=339 q=-0.0 size=N/A time=00:03:16.65 bitrate=N/A speed=14.1x    frame= 4930 fps=341 q=-0.0 size=N/A time=00:03:25.62 bitrate=N/A speed=14.2x    frame= 5166 fps=346 q=-0.0 size=N/A time=00:03:35.46 bitrate=N/A speed=14.4x    frame= 5419 fps=350 q=-0.0 size=N/A time=00:03:46.01 bitrate=N/A speed=14.6x    frame= 5632 fps=353 q=-0.0 size=N/A time=00:03:54.90 bitrate=N/A speed=14.7x    frame= 5885 fps=357 q=-0.0 size=N/A time=00:04:05.45 bitrate=N/A speed=14.9x    frame= 6102 fps=359 q=-0.0 size=N/A time=00:04:14.50 bitrate=N/A speed=  15x    frame= 6313 fps=360 q=-0.0 size=N/A time=00:04:23.30 bitrate=N/A speed=  15x    frame= 6482 fps=359 q=-0.0 size=N/A time=00:04:30.35 bitrate=N/A speed=  15x    frame= 6659 fps=359 q=-0.0 size=N/A time=00:04:37.73 bitrate=N/A speed=  15x    frame= 6874 fps=360 q=-0.0 size=N/A time=00:04:46.70 bitrate=N/A speed=  15x    frame= 7142 fps=364 q=-0.0 size=N/A time=00:04:57.88 bitrate=N/A speed=15.2x    frame= 7379 fps=367 q=-0.0 size=N/A time=00:05:07.76 bitrate=N/A speed=15.3x    frame= 7620 fps=369 q=-0.0 size=N/A time=00:05:17.81 bitrate=N/A speed=15.4x    frame= 7770 fps=368 q=-0.0 size=N/A time=00:05:24.07 bitrate=N/A speed=15.3x    frame= 7966 fps=368 q=-0.0 size=N/A time=00:05:32.24 bitrate=N/A speed=15.3x    frame= 8209 fps=370 q=-0.0 size=N/A time=00:05:42.38 bitrate=N/A speed=15.4x    frame= 8437 fps=372 q=-0.0 size=N/A time=00:05:51.89 bitrate=N/A speed=15.5x    frame= 8614 fps=371 q=-0.0 size=N/A time=00:05:59.27 bitrate=N/A speed=15.5x    frame= 8780 fps=370 q=-0.0 size=N/A time=00:06:06.19 bitrate=N/A speed=15.4x    frame= 9008 fps=372 q=-0.0 size=N/A time=00:06:15.70 bitrate=N/A speed=15.5x    frame= 9283 fps=375 q=-0.0 size=N/A time=00:06:27.17 bitrate=N/A speed=15.6x    frame= 9580 fps=379 q=-0.0 size=N/A time=00:06:39.56 bitrate=N/A speed=15.8x    frame= 9763 fps=379 q=-0.0 size=N/A time=00:06:47.19 bitrate=N/A speed=15.8x    frame= 9929 fps=378 q=-0.0 size=N/A time=00:06:54.12 bitrate=N/A speed=15.7x    frame=10170 fps=379 q=-0.0 size=N/A time=00:07:04.17 bitrate=N/A speed=15.8x    frame=10354 fps=379 q=-0.0 size=N/A time=00:07:11.84 bitrate=N/A speed=15.8x    frame=10539 fps=379 q=-0.0 size=N/A time=00:07:19.56 bitrate=N/A speed=15.8x    frame=10747 fps=379 q=-0.0 size=N/A time=00:07:28.23 bitrate=N/A speed=15.8x    frame=10989 fps=381 q=-0.0 size=N/A time=00:07:38.33 bitrate=N/A speed=15.9x    frame=11207 fps=381 q=-0.0 size=N/A time=00:07:47.42 bitrate=N/A speed=15.9x    frame=11461 fps=383 q=-0.0 size=N/A time=00:07:58.01 bitrate=N/A speed=  16x    frame=11721 fps=385 q=-0.0 size=N/A time=00:08:08.86 bitrate=N/A speed=16.1x    frame=11920 fps=385 q=-0.0 size=N/A time=00:08:17.16 bitrate=N/A speed=16.1x    frame=12144 fps=386 q=-0.0 size=N/A time=00:08:26.50 bitrate=N/A speed=16.1x    frame=12362 fps=387 q=-0.0 size=N/A time=00:08:35.59 bitrate=N/A speed=16.1x    frame=12602 fps=388 q=-0.0 size=N/A time=00:08:45.60 bitrate=N/A speed=16.2x    frame=12821 fps=389 q=-0.0 size=N/A time=00:08:54.74 bitrate=N/A speed=16.2x    frame=13041 fps=389 q=-0.0 size=N/A time=00:09:03.91 bitrate=N/A speed=16.2x    frame=13238 fps=389 q=-0.0 size=N/A time=00:09:12.13 bitrate=N/A speed=16.2x    frame=13446 fps=389 q=-0.0 size=N/A time=00:09:20.81 bitrate=N/A speed=16.2x    frame=13640 fps=389 q=-0.0 size=N/A time=00:09:28.90 bitrate=N/A speed=16.2x    frame=13886 fps=390 q=-0.0 size=N/A time=00:09:39.16 bitrate=N/A speed=16.3x    frame=14076 fps=390 q=-0.0 size=N/A time=00:09:47.08 bitrate=N/A speed=16.3x    frame=14317 fps=391 q=-0.0 size=N/A time=00:09:57.13 bitrate=N/A speed=16.3x    frame=14532 fps=391 q=-0.0 size=N/A time=00:10:06.10 bitrate=N/A speed=16.3x    frame=14804 fps=393 q=-0.0 size=N/A time=00:10:17.45 bitrate=N/A speed=16.4x    frame=15007 fps=393 q=-0.0 size=N/A time=00:10:25.91 bitrate=N/A speed=16.4x    frame=15257 fps=394 q=-0.0 size=N/A time=00:10:36.34 bitrate=N/A speed=16.4x    frame=15503 fps=396 q=-0.0 size=N/A time=00:10:46.60 bitrate=N/A speed=16.5x    frame=15772 fps=397 q=-0.0 size=N/A time=00:10:57.82 bitrate=N/A speed=16.6x    frame=16026 fps=398 q=-0.0 size=N/A time=00:11:08.41 bitrate=N/A speed=16.6x    frame=16282 fps=400 q=-0.0 size=N/A time=00:11:19.09 bitrate=N/A speed=16.7x    frame=16566 fps=401 q=-0.0 size=N/A time=00:11:30.94 bitrate=N/A speed=16.7x    frame=16791 fps=402 q=-0.0 size=N/A time=00:11:40.32 bitrate=N/A speed=16.8x    frame=17058 fps=403 q=-0.0 size=N/A time=00:11:51.46 bitrate=N/A speed=16.8x    frame=17330 fps=405 q=-0.0 size=N/A time=00:12:02.80 bitrate=N/A speed=16.9x    frame=17593 fps=406 q=-0.0 size=N/A time=00:12:13.77 bitrate=N/A speed=16.9x    frame=17800 fps=406 q=-0.0 size=N/A time=00:12:22.40 bitrate=N/A speed=16.9x    frame=18019 fps=406 q=-0.0 size=N/A time=00:12:31.54 bitrate=N/A speed=16.9x    frame=18167 fps=405 q=-0.0 size=N/A time=00:12:37.71 bitrate=N/A speed=16.9x    frame=18370 fps=405 q=-0.0 size=N/A time=00:12:46.18 bitrate=N/A speed=16.9x    frame=18544 fps=404 q=-0.0 size=N/A time=00:12:53.43 bitrate=N/A speed=16.8x    frame=18739 fps=404 q=-0.0 size=N/A time=00:13:01.57 bitrate=N/A speed=16.8x    frame=18984 fps=404 q=-0.0 size=N/A time=00:13:11.79 bitrate=N/A speed=16.9x    frame=19175 fps=404 q=-0.0 size=N/A time=00:13:19.75 bitrate=N/A speed=16.9x    frame=19412 fps=405 q=-0.0 size=N/A time=00:13:29.64 bitrate=N/A speed=16.9x    frame=19595 fps=404 q=-0.0 size=N/A time=00:13:37.27 bitrate=N/A speed=16.9x    frame=19834 fps=405 q=-0.0 size=N/A time=00:13:47.24 bitrate=N/A speed=16.9x    frame=20036 fps=405 q=-0.0 size=N/A time=00:13:55.66 bitrate=N/A speed=16.9x    frame=20200 fps=404 q=-0.0 size=N/A time=00:14:02.50 bitrate=N/A speed=16.8x    frame=20377 fps=403 q=-0.0 size=N/A time=00:14:09.89 bitrate=N/A speed=16.8x    frame=20592 fps=403 q=-0.0 size=N/A time=00:14:18.85 bitrate=N/A speed=16.8x    frame=20835 fps=404 q=-0.0 size=N/A time=00:14:28.99 bitrate=N/A speed=16.8x    frame=21102 fps=405 q=-0.0 size=N/A time=00:14:40.12 bitrate=N/A speed=16.9x    frame=21332 fps=405 q=-0.0 size=N/A time=00:14:49.72 bitrate=N/A speed=16.9x    frame=21516 fps=405 q=-0.0 size=N/A time=00:14:57.39 bitrate=N/A speed=16.9x    frame=21716 fps=405 q=-0.0 size=N/A time=00:15:05.73 bitrate=N/A speed=16.9x    frame=21940 fps=405 q=-0.0 size=N/A time=00:15:15.08 bitrate=N/A speed=16.9x    frame=22096 fps=404 q=-0.0 size=N/A time=00:15:21.58 bitrate=N/A speed=16.9x    frame=22328 fps=404 q=-0.0 size=N/A time=00:15:31.26 bitrate=N/A speed=16.9x    frame=22556 fps=405 q=-0.0 size=N/A time=00:15:40.77 bitrate=N/A speed=16.9x    frame=22742 fps=404 q=-0.0 size=N/A time=00:15:48.53 bitrate=N/A speed=16.9x    frame=22983 fps=405 q=-0.0 size=N/A time=00:15:58.58 bitrate=N/A speed=16.9x    frame=23186 fps=405 q=-0.0 size=N/A time=00:16:07.04 bitrate=N/A speed=16.9x    frame=23418 fps=405 q=-0.0 size=N/A time=00:16:16.72 bitrate=N/A speed=16.9x    frame=23652 fps=406 q=-0.0 size=N/A time=00:16:26.48 bitrate=N/A speed=16.9x    frame=23928 fps=407 q=-0.0 size=N/A time=00:16:37.99 bitrate=N/A speed=  17x    frame=24161 fps=407 q=-0.0 size=N/A time=00:16:47.71 bitrate=N/A speed=  17x    frame=24385 fps=407 q=-0.0 size=N/A time=00:16:57.05 bitrate=N/A speed=  17x    frame=24617 fps=408 q=-0.0 size=N/A time=00:17:06.73 bitrate=N/A speed=  17x    frame=24856 fps=408 q=-0.0 size=N/A time=00:17:16.70 bitrate=N/A speed=  17x    frame=25042 fps=408 q=-0.0 size=N/A time=00:17:24.46 bitrate=N/A speed=  17x    frame=25278 fps=408 q=-0.0 size=N/A time=00:17:34.30 bitrate=N/A speed=  17x    frame=25479 fps=408 q=-0.0 size=N/A time=00:17:42.68 bitrate=N/A speed=  17x    frame=25700 fps=408 q=-0.0 size=N/A time=00:17:51.90 bitrate=N/A speed=  17x    frame=25950 fps=409 q=-0.0 size=N/A time=00:18:02.33 bitrate=N/A speed=17.1x    frame=26161 fps=409 q=-0.0 size=N/A time=00:18:11.13 bitrate=N/A speed=17.1x    frame=26362 fps=409 q=-0.0 size=N/A time=00:18:19.51 bitrate=N/A speed=  17x    frame=26587 fps=409 q=-0.0 size=N/A time=00:18:28.89 bitrate=N/A speed=17.1x    frame=26799 fps=409 q=-0.0 size=N/A time=00:18:37.74 bitrate=N/A speed=17.1x    frame=27012 fps=409 q=-0.0 size=N/A time=00:18:46.62 bitrate=N/A speed=17.1x    frame=27203 fps=409 q=-0.0 size=N/A time=00:18:54.59 bitrate=N/A speed=  17x    frame=27411 fps=409 q=-0.0 size=N/A time=00:19:03.26 bitrate=N/A speed=  17x    frame=27669 fps=409 q=-0.0 size=N/A time=00:19:14.02 bitrate=N/A speed=17.1x    frame=27878 fps=409 q=-0.0 size=N/A time=00:19:22.74 bitrate=N/A speed=17.1x    frame=28116 fps=410 q=-0.0 size=N/A time=00:19:32.67 bitrate=N/A speed=17.1x    frame=28363 fps=410 q=-0.0 size=N/A time=00:19:42.97 bitrate=N/A speed=17.1x    frame=28595 fps=411 q=-0.0 size=N/A time=00:19:52.64 bitrate=N/A speed=17.1x    frame=28880 fps=412 q=-0.0 size=N/A time=00:20:04.53 bitrate=N/A speed=17.2x    frame=29125 fps=412 q=-0.0 size=N/A time=00:20:14.75 bitrate=N/A speed=17.2x    frame=29319 fps=412 q=-0.0 size=N/A time=00:20:22.84 bitrate=N/A speed=17.2x    frame=29539 fps=412 q=-0.0 size=N/A time=00:20:32.02 bitrate=N/A speed=17.2x    frame=29748 fps=412 q=-0.0 size=N/A time=00:20:40.73 bitrate=N/A speed=17.2x    frame=30005 fps=412 q=-0.0 size=N/A time=00:20:51.45 bitrate=N/A speed=17.2x    frame=30261 fps=413 q=-0.0 size=N/A time=00:21:02.13 bitrate=N/A speed=17.2x    frame=30459 fps=413 q=-0.0 size=N/A time=00:21:10.39 bitrate=N/A speed=17.2x    frame=30706 fps=413 q=-0.0 size=N/A time=00:21:20.69 bitrate=N/A speed=17.2x    frame=30933 fps=413 q=-0.0 size=N/A time=00:21:30.16 bitrate=N/A speed=17.2x    frame=31164 fps=414 q=-0.0 size=N/A time=00:21:39.79 bitrate=N/A speed=17.3x    frame=31410 fps=414 q=-0.0 size=N/A time=00:21:50.05 bitrate=N/A speed=17.3x    frame=31662 fps=415 q=-0.0 size=N/A time=00:22:00.56 bitrate=N/A speed=17.3x    frame=31889 fps=415 q=-0.0 size=N/A time=00:22:10.03 bitrate=N/A speed=17.3x    frame=32134 fps=415 q=-0.0 size=N/A time=00:22:20.25 bitrate=N/A speed=17.3x    frame=32361 fps=415 q=-0.0 size=N/A time=00:22:29.72 bitrate=N/A speed=17.3x    frame=32562 fps=415 q=-0.0 size=N/A time=00:22:38.10 bitrate=N/A speed=17.3x    frame=32813 fps=416 q=-0.0 size=N/A time=00:22:48.57 bitrate=N/A speed=17.3x    frame=33020 fps=416 q=-0.0 size=N/A time=00:22:57.20 bitrate=N/A speed=17.3x    frame=33249 fps=416 q=-0.0 size=N/A time=00:23:06.76 bitrate=N/A speed=17.3x    frame=33473 fps=416 q=-0.0 size=N/A time=00:23:16.10 bitrate=N/A speed=17.3x    frame=33683 fps=416 q=-0.0 size=N/A time=00:23:24.86 bitrate=N/A speed=17.3x    frame=33920 fps=416 q=-0.0 size=N/A time=00:23:34.74 bitrate=N/A speed=17.4x    frame=34111 fps=416 q=-0.0 size=N/A time=00:23:42.71 bitrate=N/A speed=17.3x    frame=34334 fps=416 q=-0.0 size=N/A time=00:23:52.01 bitrate=N/A speed=17.3x    frame=34538 fps=416 q=-0.0 size=N/A time=00:24:00.52 bitrate=N/A speed=17.3x    [Parsed_psnr_10 @ 000001ae3af4eec0] PSNR y:47.503409 u:50.245548 v:50.198878 average:48.235323 min:38.423376 max:inf
[out#0/null @ 000001ae39a90700] video:14858KiB audio:270436KiB subtitle:0KiB other streams:0KiB global headers:0KiB muxing overhead: unknown
frame=34578 fps=416 q=-0.0 Lsize=N/A time=00:24:02.19 bitrate=N/A speed=17.3x    
